<svg width="41" height="41" viewBox="0 0 41 41" fill="none" xmlns="http://www.w3.org/2000/svg">
<g clip-path="url(#clip0_1_41331)">
<path d="M39.3044 9.09207C37.6988 8.16477 35.6376 8.71731 34.7103 10.3229L31.7266 15.4919V11.2109C31.7266 10.7689 31.3678 10.4102 30.9258 10.4102C30.483 10.4102 30.125 10.7689 30.125 11.2109V18.2578V18.265L21.33 33.4983C21.274 33.5944 21.2395 33.7017 21.2275 33.813L20.6253 39.3984H1.61719V1.60156H30.125V4.00391C30.125 4.44594 30.483 4.80469 30.9258 4.80469C31.3678 4.80469 31.7266 4.44594 31.7266 4.00391V0.800781C31.7266 0.35875 31.3678 0 30.9258 0H0.816406C0.373574 0 0.015625 0.35875 0.015625 0.800781V40.1992C0.015625 40.6413 0.373574 41 0.816406 41H30.9258C31.3678 41 31.7266 40.6413 31.7266 40.1992V28.9442L40.536 13.6862C41.4625 12.0806 40.9107 10.0194 39.3044 9.09207ZM22.6881 35.2071L24.9968 36.5396L22.335 38.4839L22.6881 35.2071ZM30.125 39.3984H23.7988L26.9347 37.1074C27.0244 37.0417 27.0997 36.9577 27.1557 36.8616L30.125 31.7189V39.3984ZM26.1691 35.3673L23.1174 33.6056L34.8384 13.305L37.8894 15.0667L26.1691 35.3673ZM39.1482 12.8854L38.6902 13.6797L35.6392 11.918L36.0972 11.1237C36.5825 10.2828 37.6628 9.99375 38.5036 10.479C39.3452 10.9651 39.6343 12.0446 39.1482 12.8854Z" fill="#323232"/>
<path d="M30.9258 6.80664C30.7144 6.80664 30.5086 6.89232 30.3596 7.04127C30.2107 7.19021 30.125 7.39682 30.125 7.60742C30.125 7.81883 30.2107 8.02463 30.3596 8.17357C30.5086 8.32252 30.7152 8.4082 30.9258 8.4082C31.1364 8.4082 31.343 8.32252 31.4919 8.17357C31.6409 8.02463 31.7266 7.81803 31.7266 7.60742C31.7266 7.39682 31.6409 7.19021 31.4919 7.04127C31.343 6.89232 31.1372 6.80664 30.9258 6.80664Z" fill="#323232"/>
<path d="M23.959 8.48828H7.7832C7.34037 8.48828 6.98242 8.84703 6.98242 9.28906C6.98242 9.73109 7.34037 10.0898 7.7832 10.0898H23.959C24.401 10.0898 24.7598 9.73109 24.7598 9.28906C24.7598 8.84703 24.401 8.48828 23.959 8.48828Z" fill="#FF540E"/>
<path d="M23.959 12.9727H7.7832C7.34037 12.9727 6.98242 13.3314 6.98242 13.7734C6.98242 14.2155 7.34037 14.5742 7.7832 14.5742H23.959C24.401 14.5742 24.7598 14.2155 24.7598 13.7734C24.7598 13.3314 24.401 12.9727 23.959 12.9727Z" fill="#FF540E"/>
<path d="M23.9595 17.457H18.0137C17.5708 17.457 17.2129 17.8158 17.2129 18.2578C17.2129 18.6998 17.5708 19.0586 18.0137 19.0586H23.9595C24.4015 19.0586 24.7602 18.6998 24.7602 18.2578C24.7602 17.8158 24.4015 17.457 23.9595 17.457Z" fill="#FF540E"/>
<path d="M24.7598 22.7422C24.7598 22.3002 24.401 21.9414 23.959 21.9414H7.7832C7.34037 21.9414 6.98242 22.3002 6.98242 22.7422C6.98242 23.1842 7.34037 23.543 7.7832 23.543H23.959C24.401 23.543 24.7598 23.1842 24.7598 22.7422Z" fill="#FF540E"/>
<path d="M21.3154 27.2266C21.3154 26.7845 20.9567 26.4258 20.5146 26.4258H15.5098C15.0669 26.4258 14.709 26.7845 14.709 27.2266C14.709 27.6686 15.0669 28.0273 15.5098 28.0273H20.5146C20.9567 28.0273 21.3154 27.6686 21.3154 27.2266Z" fill="#FF540E"/>
<path d="M7.7832 32.5117H14.8301C15.2721 32.5117 15.6309 32.153 15.6309 31.7109C15.6309 31.2689 15.2721 30.9102 14.8301 30.9102H7.7832C7.34037 30.9102 6.98242 31.2689 6.98242 31.7109C6.98242 32.153 7.34037 32.5117 7.7832 32.5117Z" fill="#FF540E"/>
<path d="M7.7832 19.0586H13.1212C13.5641 19.0586 13.922 18.6998 13.922 18.2578C13.922 17.8158 13.5641 17.457 13.1212 17.457H7.7832C7.34037 17.457 6.98242 17.8158 6.98242 18.2578C6.98242 18.6998 7.34037 19.0586 7.7832 19.0586Z" fill="#FF540E"/>
<path d="M7.7832 28.0273H11.9072C12.3493 28.0273 12.708 27.6686 12.708 27.2266C12.708 26.7845 12.3493 26.4258 11.9072 26.4258H7.7832C7.34037 26.4258 6.98242 26.7845 6.98242 27.2266C6.98242 27.6686 7.34037 28.0273 7.7832 28.0273Z" fill="#FF540E"/>
</g>
<defs>
<clipPath id="clip0_1_41331">
<rect width="41" height="41" fill="white"/>
</clipPath>
</defs>
</svg>
