<svg width="45" height="45" viewBox="0 0 45 45" fill="none" xmlns="http://www.w3.org/2000/svg">
<g clip-path="url(#clip0_1_54027)">
<path d="M44.0625 18.75H0.937529C0.375029 18.75 0 19.125 0 19.6875V32.8125C0 35.4375 2.06253 37.5 4.68747 37.5H40.3124C42.9375 37.5 44.9999 35.4374 44.9999 32.8125V19.6875C45 19.125 44.625 18.75 44.0625 18.75ZM6.56253 26.2501H14.0625C14.625 26.2501 15 26.6251 15 27.1876C15 27.7501 14.625 28.1251 14.0625 28.1251H6.56253C6.00003 28.125 5.625 27.75 5.625 27.1875C5.625 26.625 6.00003 26.2501 6.56253 26.2501ZM19.6875 31.875H6.56253C6.00003 31.875 5.625 31.5 5.625 30.9375C5.625 30.375 6.00003 30 6.56253 30H19.6875C20.25 30 20.625 30.375 20.625 30.9375C20.625 31.5 20.25 31.875 19.6875 31.875ZM35.625 31.875C34.875 31.875 34.3125 31.6876 33.75 31.3125C33.1875 31.6876 32.625 31.875 31.875 31.875C29.8125 31.875 28.125 30.1875 28.125 28.125C28.125 26.0625 29.8125 24.375 31.875 24.375C32.625 24.375 33.1875 24.5625 33.75 24.9375C34.3125 24.5625 34.875 24.375 35.625 24.375C37.6875 24.375 39.375 26.0625 39.375 28.125C39.375 30.1875 37.6875 31.875 35.625 31.875Z" fill="#808080"/>
<path d="M40.3125 7.5H4.68747C2.06253 7.5 0 9.56253 0 12.1876V14.0625C0 14.625 0.375029 15 0.937529 15H44.0626C44.6251 15 45.0001 14.625 45.0001 14.0625V12.1876C45 9.56253 42.9375 7.5 40.3125 7.5Z" fill="#808080"/>
</g>
<defs>
<clipPath id="clip0_1_54027">
<rect width="45" height="45" fill="white"/>
</clipPath>
</defs>
</svg>
