<svg width="47" height="47" viewBox="0 0 47 47" fill="none" xmlns="http://www.w3.org/2000/svg">
<g clip-path="url(#clip0_1_41372)">
<path d="M0.108592 32.1949C0.268319 32.4933 0.579419 32.6797 0.917965 32.6797H5.50781V46.082C5.50781 46.5889 5.91878 47 6.42578 47H40.5742C41.0812 47 41.4922 46.5889 41.4922 46.082V32.6797H46.082C46.4206 32.6797 46.7317 32.4933 46.8914 32.1949C47.0511 31.8964 47.0336 31.5342 46.8458 31.2525L41.338 22.9908C41.1678 22.7354 40.8811 22.582 40.5742 22.582H37.0859C36.5789 22.582 36.168 22.993 36.168 23.5C36.168 24.007 36.5789 24.418 37.0859 24.418H40.0829L44.3668 30.8438H29.4991L25.2152 24.418H28.8242C29.3312 24.418 29.7422 24.007 29.7422 23.5C29.7422 22.993 29.3312 22.582 28.8242 22.582C27.7759 22.582 7.44032 22.582 6.42578 22.582C6.11881 22.582 5.83222 22.7354 5.66203 22.9908L0.154215 31.2525C-0.033601 31.5342 -0.0511342 31.8964 0.108592 32.1949ZM7.34375 32.6797H17.9922C18.2992 32.6797 18.5857 32.5263 18.7559 32.2709L22.582 26.5318V45.1641H7.34375V32.6797ZM28.2441 32.2709C28.4143 32.5263 28.7009 32.6797 29.0078 32.6797H39.6562V45.1641H24.418V26.5318L28.2441 32.2709ZM6.91708 24.418H21.7848L17.5009 30.8438H2.63319L6.91708 24.418Z" fill="#323232"/>
<path d="M17.9922 2.29768C17.2424 1.19575 15.948 0 13.8613 0C10.9197 0 8.8125 2.37065 8.8125 5.22967C8.8125 8.40391 11.3814 10.4887 15.2701 13.6443C15.9515 14.1972 16.6561 14.769 17.4046 15.3927C17.5748 15.5345 17.7834 15.6054 17.9922 15.6054C18.2009 15.6054 18.4096 15.5345 18.5798 15.3927C19.3283 14.769 20.0328 14.1972 20.7142 13.6443C24.6029 10.4887 27.1719 8.40391 27.1719 5.22967C27.1719 2.36836 25.0625 0 22.123 0C20.0364 0 18.7421 1.19575 17.9922 2.29768ZM25.3359 5.22967C25.3359 7.52936 23.0372 9.39495 19.5574 12.2187C19.0517 12.629 18.5333 13.0498 17.9922 13.4955C17.451 13.0498 16.9327 12.6291 16.427 12.2187C12.9473 9.39495 10.6484 7.52945 10.6484 5.22967C10.6484 3.29496 12.0297 1.83594 13.8613 1.83594C16.2579 1.83594 17.0773 4.50429 17.1101 4.61445C17.2233 5.00761 17.583 5.27832 17.9922 5.27832C18.4013 5.27832 18.7611 5.00752 18.8743 4.61445C18.8823 4.58663 19.7025 1.83594 22.123 1.83594C23.9547 1.83594 25.3359 3.29496 25.3359 5.22967Z" fill="#FF540E"/>
<path d="M34.5156 18.3594C34.7314 18.3594 34.9472 18.2836 35.1202 18.1322C35.6188 17.6958 36.0888 17.2953 36.5432 16.908C39.0966 14.7319 40.9414 13.1598 40.9414 10.821C40.9414 8.61376 39.3285 6.88477 37.2695 6.88477C35.9592 6.88477 35.0807 7.55112 34.5156 8.26484C33.9505 7.55112 33.0721 6.88477 31.7617 6.88477C29.7027 6.88477 28.0898 8.61376 28.0898 10.821C28.0898 13.1598 29.9347 14.7319 32.488 16.908C32.9425 17.2953 33.4124 17.6958 33.9111 18.1322C34.0841 18.2836 34.2999 18.3594 34.5156 18.3594ZM29.9258 10.821C29.9258 9.8028 30.5692 8.7207 31.7617 8.7207C33.1148 8.7207 33.6088 10.3802 33.6315 10.4593C33.7422 10.8559 34.103 11.1327 34.515 11.1327C34.9284 11.1327 35.2902 10.8587 35.3996 10.4599C35.4199 10.3889 35.9129 8.7207 37.2695 8.7207C38.4621 8.7207 39.1055 9.8028 39.1055 10.821C39.1055 12.3122 37.6928 13.5161 35.3524 15.5106C35.0803 15.7425 34.8025 15.9792 34.5156 16.2261C34.2288 15.9792 33.9511 15.7425 33.6788 15.5106C31.3384 13.5161 29.9258 12.3122 29.9258 10.821Z" fill="#FF540E"/>
<path d="M32.9551 24.418C33.4621 24.418 33.873 24.007 33.873 23.5C33.873 22.993 33.4621 22.582 32.9551 22.582C32.4481 22.582 32.0371 22.993 32.0371 23.5C32.0371 24.007 32.4481 24.418 32.9551 24.418Z" fill="#323232"/>
</g>
<defs>
<clipPath id="clip0_1_41372">
<rect width="47" height="47" fill="white"/>
</clipPath>
</defs>
</svg>
