<svg width="38" height="38" viewBox="0 0 38 38" fill="none" xmlns="http://www.w3.org/2000/svg">
<g clip-path="url(#clip0_1_41363)">
<path d="M19.7496 17.5972H13.6488C13.1887 17.5972 12.877 17.9831 12.877 18.369V36.4042C12.877 36.8718 13.2629 37.1761 13.6488 37.1761H19.7496C20.1355 37.1761 20.5215 36.8644 20.5215 36.4042V18.369C20.5215 17.9089 20.1355 17.5972 19.7496 17.5972ZM18.9777 35.6323H14.4207V19.1483H18.9777V35.6323Z" fill="#FF540E"/>
<path d="M7.69687 20.2319H1.59609C1.13594 20.2319 0.824219 20.6179 0.824219 21.0038V36.4116C0.824219 36.8792 1.21016 37.1835 1.59609 37.1835H7.69687C8.08281 37.1835 8.46875 36.8718 8.46875 36.4116V21.0038C8.46875 20.5362 8.08281 20.2319 7.69687 20.2319ZM6.925 35.6323H2.36797V21.7757H6.925V35.6323Z" fill="#FF540E"/>
<path d="M37.0508 11.7117L29.4063 1.10586C29.0946 0.719922 28.4786 0.719922 28.1743 1.10586L20.5297 11.7117C20.218 12.1496 20.3368 12.8695 21.1457 12.8695H24.9309V36.4043C24.9309 36.8719 25.3168 37.1762 25.7028 37.1762H31.8036C32.1895 37.1762 32.5754 36.8645 32.6497 36.4043V12.877H36.4348C37.1918 12.877 37.3551 12.1051 37.0508 11.7117ZM31.7961 11.3258C31.336 11.3258 31.0243 11.7117 31.0243 12.0977V35.6324H26.4672H26.393V12.0977C26.393 11.6301 26.0071 11.3258 25.6211 11.3258H22.5336L28.7086 2.81289L34.8836 11.3258H31.7961Z" fill="#323232"/>
</g>
<defs>
<clipPath id="clip0_1_41363">
<rect width="38" height="38" fill="white"/>
</clipPath>
</defs>
</svg>
