<svg width="31" height="31" viewBox="0 0 31 31" fill="none" xmlns="http://www.w3.org/2000/svg">
<g clip-path="url(#clip0_1_42133)">
<path d="M28.0172 28.2254C28.5423 27.279 28.5423 26.339 28.4581 25.7426C29.7481 24.5757 29.975 23.2857 29.9296 22.3781C29.9037 21.853 29.787 21.4057 29.6638 21.0751L28.0172 28.2254ZM28.0172 28.2254C27.3301 29.4636 25.9752 30.3064 23.9915 30.7277C23.1488 30.9092 22.1375 31 20.9771 31C20.3029 31 19.5768 30.9676 18.8054 30.9092C14.5463 30.9935 10.3974 30.4684 10.164 30.436L8.64062 30.2545C8.1998 30.5657 7.66174 30.7472 7.08479 30.7472H3.13037C1.64585 30.7472 0.433594 29.5414 0.433594 28.0504V17.5161C0.433594 16.0316 1.63937 14.8193 3.13037 14.8193H7.08479C7.51575 14.8193 7.91908 14.9188 8.27947 15.0974L28.0172 28.2254ZM20.841 13.1533C20.8539 13.15 20.8685 13.1468 20.8831 13.1436C20.8977 13.1403 20.9123 13.1371 20.9252 13.1338C22.9154 12.6995 26.4809 12.4337 27.719 13.5617C28.7692 14.5211 28.0237 15.7917 27.9394 15.9279C27.6996 16.2909 27.7709 16.7641 28.095 17.0558L28.0959 17.0567C28.1239 17.0837 28.7827 17.7184 28.8146 18.5663M20.841 13.1533L20.8248 13.0546C20.8235 13.0548 20.8222 13.055 20.8208 13.0552M20.841 13.1533L20.8167 13.0563C20.8181 13.0559 20.8194 13.0556 20.8208 13.0552M20.841 13.1533C20.4844 13.2116 20.1084 13.2894 19.713 13.3802L18.7762 2.55389M20.8208 13.0552C20.8342 13.052 20.8485 13.0488 20.8614 13.0459C20.8705 13.0439 20.879 13.042 20.8869 13.0402C20.8919 13.039 20.8965 13.0379 20.901 13.0368L20.9039 13.0361L20.9039 13.0361C21.9054 12.8176 23.3021 12.6415 24.6057 12.6619C25.2576 12.6721 25.8892 12.7315 26.4379 12.8605C26.9852 12.9893 27.459 13.1895 27.7864 13.4878L27.7865 13.4879C28.3417 13.9951 28.4228 14.5888 28.3536 15.0678C28.2851 15.5423 28.0695 15.9078 28.0245 15.9805L28.0229 15.983L28.0229 15.983C27.8116 16.3027 27.8728 16.7213 28.1619 16.9815L28.1658 16.985L28.1657 16.9851C28.164 16.9834 28.1786 16.9974 28.1982 17.0175C28.2186 17.0385 28.247 17.0688 28.2809 17.1075C28.3486 17.1848 28.4383 17.2964 28.5289 17.4356C28.7093 17.713 28.8973 18.1065 28.9145 18.5622M20.8208 13.0552C20.4627 13.114 20.0858 13.192 19.6906 13.2827L19.6904 13.282L19.6792 13.2861C19.2903 13.4258 18.7607 13.4053 18.3664 13.0528L18.3661 13.0525C17.9683 12.6996 17.7764 12.1117 17.8267 11.1823C17.877 10.2534 18.1686 9.00429 18.7124 7.35673L18.7124 7.35667C19.0709 6.26812 19.2585 5.308 19.2717 4.5014C19.2848 3.6954 19.1239 3.03449 18.7762 2.55389M28.9145 18.5622C28.9145 18.5621 28.9145 18.5619 28.9145 18.5618L28.8146 18.5663M28.9145 18.5622C28.9145 18.5623 28.9145 18.5624 28.9145 18.5625L28.8146 18.5663M28.9145 18.5622C28.942 19.1759 28.6514 19.7909 28.0765 20.3858M28.8146 18.5663C28.8405 19.1432 28.5683 19.7332 28.0043 20.3166M28.0043 20.3166L28.0766 20.3857C28.0766 20.3857 28.0765 20.3858 28.0765 20.3858M28.0043 20.3166L28.0762 20.3861C28.0763 20.386 28.0764 20.3859 28.0765 20.3858M28.0043 20.3166L28.2857 22.4507M28.0765 20.3858C27.8348 20.6391 27.7898 21.0236 27.9728 21.3209L27.9876 21.345V21.3496L27.988 21.3504C27.9956 21.3651 28.0066 21.3868 28.0198 21.4145C28.0464 21.47 28.0819 21.5497 28.1184 21.6492C28.1913 21.8478 28.2688 22.1269 28.2857 22.4507M28.2857 22.4507C28.3332 23.3416 27.9018 24.1227 27.0275 24.7785M28.2857 22.4507C28.2857 22.4506 28.2856 22.4506 28.2856 22.4505L27.0275 24.7785M27.0275 24.7785C26.7569 24.986 26.6483 25.3424 26.763 25.6636L26.7689 25.6799V25.6836C26.7708 25.6906 26.7735 25.7003 26.7766 25.7122C26.7838 25.7394 26.7934 25.7784 26.8033 25.8274C26.8232 25.9253 26.8447 26.0636 26.8514 26.2279C26.8649 26.556 26.8197 26.9924 26.5811 27.4185C26.1257 28.2342 25.1245 28.8008 23.6496 29.1141L27.0275 24.7785ZM18.7762 2.55389C18.1897 1.7423 17.2198 1.64398 16.869 1.63737L16.8104 1.63626L16.7808 1.68683C16.7328 1.76887 16.6987 1.88838 16.6744 2.02337C16.6496 2.16094 16.6332 2.32421 16.6254 2.50029C16.6097 2.85233 16.6278 3.26241 16.684 3.63232L16.6839 3.63232L16.6843 3.63445C16.7073 3.76683 16.6956 3.89764 16.6505 4.01605L16.65 4.01733C16.5888 4.18479 15.8478 6.21199 14.7592 8.48472C14.2148 9.62113 13.5843 10.8173 12.9093 11.8723C12.2333 12.9289 11.5167 13.8372 10.802 14.4039L10.7961 14.4086L10.7909 14.4142C10.0101 15.2546 9.68041 16.2384 9.56182 16.6798L9.55435 16.7076L9.56282 16.7352C9.63792 16.9793 9.68156 17.2416 9.68156 17.5096V28.0504C9.68156 28.2384 9.66275 28.4258 9.62544 28.5999L9.60245 28.7072L9.71142 28.7202L10.3662 28.798L10.3661 28.7987H10.3778C10.5827 28.8255 14.7186 29.348 18.8129 29.2589H18.813H18.8132H18.8134H18.8136H18.8138H18.814H18.8142H18.8144H18.8145H18.8147H18.8149H18.8151H18.8153H18.8155H18.8157H18.8159H18.8161H18.8163H18.8164H18.8166H18.8168H18.817H18.8172H18.8174H18.8176H18.8178H18.818H18.8182H18.8183H18.8185H18.8187H18.8189H18.8191H18.8193H18.8195H18.8197H18.8199H18.82H18.8202H18.8204H18.8206H18.8208H18.821H18.8212H18.8214H18.8216H18.8218H18.8219H18.8221H18.8223H18.8225H18.8227H18.8229H18.8231H18.8233H18.8235H18.8237H18.8238H18.824H18.8242H18.8244H18.8246H18.8248H18.825H18.8252H18.8254H18.8255H18.8257H18.8259H18.8261H18.8263H18.8265H18.8267H18.8269H18.8271H18.8272H18.8274H18.8276H18.8278H18.828H18.8282H18.8284H18.8286H18.8288H18.8289H18.8291H18.8293H18.8295H18.8297H18.8299H18.8301H18.8303H18.8305H18.8306H18.8308H18.831H18.8312H18.8314H18.8316H18.8318H18.832H18.8321H18.8323H18.8325H18.8327H18.8329H18.8331H18.8333H18.8335H18.8337H18.8338H18.834H18.8342H18.8344H18.8346H18.8348H18.835H18.8352H18.8353H18.8355H18.8357H18.8359H18.8361H18.8363H18.8365H18.8367H18.8368H18.837H18.8372H18.8374H18.8376H18.8378H18.838H18.8382H18.8383H18.8385H18.8387H18.8389H18.8391H18.8393H18.8395H18.8397H18.8398H18.84H18.8402H18.8404H18.8406H18.8408H18.841H18.8411H18.8413H18.8415H18.8417H18.8419H18.8421H18.8423H18.8424H18.8426H18.8428H18.843H18.8432H18.8434H18.8436H18.8438H18.8439H18.8441H18.8443H18.8445H18.8447H18.8449H18.845H18.8452H18.8454H18.8456H18.8458H18.846H18.8462H18.8463H18.8465H18.8467H18.8469H18.8471H18.8473H18.8475H18.8476H18.8478H18.848H18.8482H18.8484H18.8486H18.8487H18.8489H18.8491H18.8493H18.8495H18.8497H18.8499H18.85H18.8502H18.8504H18.8506H18.8508H18.851H18.8511H18.8513H18.8515H18.8517H18.8519H18.8521H18.8522H18.8524H18.8526H18.8528H18.853H18.8532H18.8533H18.8535H18.8537H18.8539H18.8541H18.8543H18.8544H18.8546H18.8548H18.855H18.8552H18.8553H18.8555H18.8557H18.8559H18.8561H18.8563H18.8564H18.8566H18.8568H18.857H18.8572H18.8573H18.8575H18.8577H18.8579H18.8581H18.8583H18.8584H18.8586H18.8588H18.859H18.8592H18.8593H18.8595H18.8597H18.8599H18.8601H18.8602H18.8604H18.8606H18.8608H18.861H18.8611H18.8613H18.8615H18.8617H18.8619H18.862H18.8622H18.8624H18.8626H18.8628H18.8629H18.8631H18.8633H18.8635H18.8636H18.8638H18.864H18.8642H18.8644H18.8645H18.8647H18.8649H18.8651H18.8653H18.8654H18.8656H18.8658H18.866H18.8661H18.8663H18.8665H18.8667H18.8669H18.867H18.8672H18.8674H18.8676H18.8677H18.8679H18.8681H18.8683H18.8684H18.8686H18.8688H18.869H18.8691H18.8693H18.8695H18.8697H18.8699H18.87H18.8702H18.8704H18.8706H18.8707H18.8709H18.8711H18.8713H18.8714H18.8716H18.8718H18.872H18.8721H18.8723H18.8725H18.8727H18.8728H18.873H18.8732H18.8733H18.8735H18.8737H18.8739H18.874H18.8742H18.8744H18.8746H18.8747H18.8749H18.8751H18.8753H18.8754H18.8756H18.8758H18.8759H18.8761H18.8763H18.8765H18.8766H18.8768H18.877H18.8771H18.8773H18.8775H18.8777H18.8778H18.878H18.8782H18.8783H18.8785H18.8787H18.8789H18.879H18.8792H18.8794H18.8795H18.8797H18.8799H18.8801H18.8802H18.8804H18.8806H18.8807H18.8809H18.8811H18.8812H18.8814H18.8816H18.8817H18.8819H18.8821H18.8823H18.8824H18.8826H18.8828H18.8829H18.8831H18.8833H18.8834H18.8836H18.8838H18.8839H18.8841H18.8843H18.8844H18.8846H18.8848H18.8849H18.8851H18.8853H18.8854H18.8856H18.8858H18.8859H18.8861H18.8863H18.8864H18.8866H18.8868H18.8869H18.8871H18.8873H18.8874H18.8876H18.8877H18.8879H18.8881H18.8882H18.8884H18.8886H18.8887H18.8889H18.8891H18.8892H18.8894H18.8896H18.8897H18.8899H18.89H18.8902H18.8904H18.8905H18.8907H18.8909H18.891H18.8912H18.8913H18.8915H18.8917H18.8918H18.892H18.8921H18.8923H18.8925H18.8926H18.8928H18.893H18.8931H18.8933H18.8934H18.8936H18.8938H18.8939H18.8941H18.8942H18.8944H18.8946H18.8947H18.8949H18.895H18.8952H18.8953H18.8955H18.8957H18.8958H18.896H18.8961H18.8963H18.8965H18.8966H18.8968H18.8969H18.8971H18.8972H18.8974H18.8976H18.8977H18.8979H18.898H18.8982H18.8983H18.8985H18.8986H18.8987C20.8586 29.4145 22.463 29.3697 23.6493 29.1141L18.7762 2.55389ZM18.7762 2.55389L18.6952 2.6125M18.7762 2.55389L18.6952 2.6125M18.7762 2.55389C18.7762 2.55391 18.7762 2.55392 18.7762 2.55393L18.6952 2.6125M18.7762 2.55389L18.6952 2.6125M29.5851 21.0134L29.5506 21.0575L29.5701 21.11C29.6903 21.4326 29.8044 21.8697 29.8297 22.383L29.8297 22.3831C29.874 23.2673 29.6543 24.5257 28.391 25.6684L28.3516 25.704L28.359 25.7566C28.4414 26.3397 28.4409 27.2557 27.9298 28.1769C27.2619 29.3804 25.9387 30.2119 23.9707 30.6299L23.9705 30.63C23.1366 30.8096 22.1327 30.9 20.9771 30.9C20.306 30.9 19.5825 30.8677 18.8129 30.8095L18.813 30.8091L18.8034 30.8093C14.5518 30.8934 10.4087 30.369 10.1778 30.3369L10.1759 30.3367L8.65245 30.1552L8.61432 30.1507L8.58295 30.1728C8.15852 30.4724 7.64051 30.6472 7.08479 30.6472H3.13037C1.70092 30.6472 0.533594 29.486 0.533594 28.0504V17.5161C0.533594 16.0866 1.69475 14.9193 3.13037 14.9193H7.08479C7.53451 14.9193 7.9525 15.0317 8.32067 15.2314L8.41483 15.2824L8.45932 15.185C8.72802 14.5964 9.124 13.9261 9.71057 13.3074C9.74364 13.2743 9.76908 13.2494 9.79814 13.23L9.79827 13.2302L9.80368 13.226C10.3239 12.8255 10.8615 12.17 11.387 11.3841C11.9135 10.5966 12.4323 9.67127 12.9135 8.72477C13.8758 6.83176 14.6909 4.84771 15.1197 3.69763L15.1283 3.67453L15.1252 3.65007C15.0804 3.29767 15.0374 2.74182 15.0939 2.17265C15.1507 1.60109 15.3064 1.03081 15.6464 0.635697L15.6464 0.635661C15.9447 0.288695 16.3641 0.1 16.8217 0.1C17.3194 0.1 18.9938 0.21608 20.0404 1.6599C21.036 3.03353 21.0992 5.10645 20.195 7.85807C19.4286 10.1831 19.3527 11.2282 19.3798 11.662L19.3871 11.7788L19.5013 11.7534C19.8474 11.6765 20.1865 11.6061 20.5063 11.5483H20.5148L20.5255 11.546L20.526 11.5459C20.5884 11.532 22.0054 11.2171 23.6979 11.1398L23.6981 11.1398C26.1141 11.0235 27.8306 11.4457 28.8315 12.3585C30.1955 13.6031 30.0422 15.2052 29.6294 16.2342L29.6081 16.2871L29.6428 16.3323C29.9986 16.7961 30.4272 17.548 30.465 18.5054L30.465 18.5058C30.5027 19.373 30.2081 20.2188 29.5851 21.0134ZM3.13037 29.0969H3.23037V29.0904H7.08479C7.65818 29.0904 8.13125 28.6247 8.13125 28.0439V17.5096C8.13125 16.9362 7.66555 16.4632 7.08479 16.4632H3.13037C2.55698 16.4632 2.08391 16.9289 2.08391 17.5096V28.0504C2.08391 28.6238 2.54961 29.0969 3.13037 29.0969ZM27.9788 21.3325L27.9788 21.3326L27.9788 21.3325Z" fill="#323232" stroke="white" stroke-width="0.2"/>
<path d="M2.8832 23.2499C2.8832 22.0997 3.81896 21.1642 4.9691 21.1642C6.1196 21.1642 7.055 22.0997 7.055 23.2499C7.055 24.4005 6.11923 25.336 4.9691 25.336C3.81897 25.336 2.8832 24.4005 2.8832 23.2499ZM3.96289 23.2499C3.96289 23.8054 4.41449 24.2562 4.9691 24.2562C5.5241 24.2562 5.97531 23.8054 5.97531 23.2499C5.97531 22.6948 5.52407 22.244 4.9691 22.244C4.41452 22.244 3.96289 22.6948 3.96289 23.2499Z" fill="#FF540E" stroke="white" stroke-width="0.2"/>
<path d="M12.5904 4.64388H5.55175C5.17511 4.64388 4.86953 4.33867 4.86953 3.96166C4.86953 3.58465 5.17511 3.27944 5.55175 3.27944H12.5904C12.967 3.27944 13.2722 3.58457 13.2722 3.96166C13.2722 4.33875 12.967 4.64388 12.5904 4.64388Z" fill="#FF540E" stroke="white" stroke-width="0.2"/>
<path d="M11.676 7.45117H2.63425C2.35122 7.45117 2.08828 7.16068 2.08828 6.7563C2.08828 6.35191 2.35122 6.06143 2.63425 6.06143H11.676C11.959 6.06143 12.2216 6.35183 12.2216 6.7563C12.2216 7.16076 11.959 7.45117 11.676 7.45117Z" fill="#FF540E" stroke="white" stroke-width="0.2"/>
</g>
<defs>
<clipPath id="clip0_1_42133">
<rect width="31" height="31" fill="white"/>
</clipPath>
</defs>
</svg>
