<svg width="49" height="49" viewBox="0 0 49 49" fill="none" xmlns="http://www.w3.org/2000/svg">
<g clip-path="url(#clip0_1_54015)">
<path d="M0 13.852V20.7369C3.73051 20.5892 6.73731 17.5824 6.88488 13.8518L0 13.852Z" fill="#FF540E"/>
<path d="M43.2582 20.7369V13.8518H36.373C36.5206 17.5825 39.5275 20.5893 43.2582 20.7369Z" fill="#FF540E"/>
<path d="M0 34.0054V40.8904H6.88498C6.74095 37.1581 3.73223 34.1495 0 34.0054Z" fill="#FF540E"/>
<path d="M43.2576 31.1316V23.611C37.9433 23.4612 33.6482 19.1661 33.4984 13.8518H9.75889C9.60911 19.1661 5.31422 23.4611 0 23.611V31.1313C5.31595 31.2774 9.61303 35.5746 9.75917 40.8904H33.4986C33.6502 35.5772 37.9442 31.2832 43.2576 31.1316ZM12.0027 28.8068H7.30476V25.9357H12.0027V28.8068ZM21.6287 33.5302C18.2327 33.5302 15.4697 30.7673 15.4697 27.3713C15.4697 23.9752 18.2327 21.2123 21.6287 21.2123C25.0247 21.2123 27.7876 23.9752 27.7876 27.3713C27.7876 30.7673 25.0247 33.5302 21.6287 33.5302ZM35.9525 28.8068H31.2547V25.9357H35.9525V28.8068Z" fill="#FF540E"/>
<path d="M48.9997 8.10938H5.74219V10.9807H46.1284V35.1479H48.9997V8.10938Z" fill="#FF540E"/>
<path d="M43.258 34.0056C39.5283 34.1549 36.5224 37.1607 36.373 40.8904H43.2578L43.258 34.0056Z" fill="#FF540E"/>
<path d="M21.6277 24.0833C19.8148 24.0833 18.3398 25.5582 18.3398 27.3711C18.3398 29.184 19.8148 30.6589 21.6277 30.6589C23.4406 30.6589 24.9155 29.184 24.9155 27.3711C24.9155 25.5582 23.4406 24.0833 21.6277 24.0833Z" fill="#FF540E"/>
</g>
<defs>
<clipPath id="clip0_1_54015">
<rect width="49" height="49" fill="white"/>
</clipPath>
</defs>
</svg>
