<svg width="41" height="41" viewBox="0 0 41 41" fill="none" xmlns="http://www.w3.org/2000/svg">
<g clip-path="url(#clip0_1_41352)">
<path d="M35.3052 32.3216L35.4441 32.1138C36.0648 32.5288 36.9041 32.3619 37.3189 31.7414L37.5267 31.8804L37.3189 31.7414C39.564 28.3834 40.75 24.4963 40.75 20.5C40.75 15.0906 38.6439 10.0062 34.819 6.18104C30.9938 2.35606 25.9094 0.25 20.5 0.25C15.0906 0.25 10.0062 2.35606 6.18104 6.18103C6.18104 6.18103 6.18103 6.18104 6.18103 6.18104M35.3052 32.3216L6.00426 6.00426L6.18103 6.18104M35.3052 32.3216L35.4441 32.1138C34.8236 31.6989 34.6569 30.8595 35.0718 30.239C37.0177 27.3284 38.0469 23.9606 38.0469 20.5C38.0469 10.8244 30.1756 2.95312 20.5 2.95312C10.8244 2.95312 2.95312 10.8244 2.95312 20.5C2.95312 30.1756 10.8244 38.0469 20.5 38.0469C23.7089 38.0469 26.8479 37.1732 29.5772 35.5198C30.2157 35.133 31.0467 35.337 31.4335 35.9755C31.8203 36.6139 31.6162 37.445 30.9778 37.8318M35.3052 32.3216L30.9778 37.8318M6.18103 6.18104C2.35606 10.0062 0.25 15.0906 0.25 20.5C0.25 25.9094 2.35606 30.9938 6.18104 34.819C10.0062 38.6439 15.0906 40.75 20.5 40.75C24.2033 40.75 27.8263 39.7408 30.9778 37.8318M6.18103 6.18104L30.9778 37.8318" fill="#323232" stroke="white" stroke-width="0.5"/>
<path d="M15.6779 29.6968L15.6779 29.6968C15.0213 29.3419 14.7767 28.5218 15.1317 27.8652L14.9118 27.7463L15.1317 27.8651L23.7888 11.8495L23.7888 11.8495C24.1435 11.193 24.9636 10.9483 25.6204 11.3033L25.6204 11.3033C26.277 11.6581 26.5216 12.4782 26.1666 13.1349L17.5095 29.1506L17.7295 29.2694L17.5095 29.1506C17.2653 29.6025 16.8003 29.8597 16.3192 29.8597C16.1025 29.8597 15.8826 29.8075 15.6779 29.6968Z" fill="#FF540E" stroke="white" stroke-width="0.5"/>
<path d="M13.8535 11.1406C15.9232 11.1406 17.6074 12.8248 17.6074 14.8945C17.6074 16.9642 15.9232 18.6484 13.8535 18.6484C11.7838 18.6484 10.0996 16.9642 10.0996 14.8945C10.0996 12.8248 11.7838 11.1406 13.8535 11.1406ZM12.8027 14.8945C12.8027 15.4742 13.2739 15.9453 13.8535 15.9453C14.4331 15.9453 14.9043 15.4742 14.9043 14.8945C14.9043 14.3149 14.4331 13.8438 13.8535 13.8438C13.2739 13.8438 12.8027 14.3149 12.8027 14.8945Z" fill="#FF540E" stroke="white" stroke-width="0.5"/>
<path d="M30.8203 26.1055C30.8203 28.1752 29.1361 29.8594 27.0664 29.8594C24.9967 29.8594 23.3125 28.1752 23.3125 26.1055C23.3125 24.0358 24.9967 22.3516 27.0664 22.3516C29.1361 22.3516 30.8203 24.0358 30.8203 26.1055ZM28.1172 26.1055C28.1172 25.5258 27.646 25.0547 27.0664 25.0547C26.4868 25.0547 26.0156 25.5258 26.0156 26.1055C26.0156 26.6851 26.4868 27.1562 27.0664 27.1562C27.646 27.1562 28.1172 26.6851 28.1172 26.1055Z" fill="#FF540E" stroke="white" stroke-width="0.5"/>
</g>
<defs>
<clipPath id="clip0_1_41352">
<rect width="41" height="41" fill="white"/>
</clipPath>
</defs>
</svg>
