<svg width="47" height="47" viewBox="0 0 47 47" fill="none" xmlns="http://www.w3.org/2000/svg">
<g clip-path="url(#clip0_1_41319)">
<path d="M47.0001 31.5255C47.0001 29.8581 46.4865 28.3087 45.6112 27.0252C45.5652 26.9111 45.4888 26.817 45.3964 26.7384C43.9346 24.7878 41.6118 23.5177 38.9923 23.5177H37.9807L31.2526 17.199C29.8645 15.8964 28.0518 15.179 26.1484 15.179H3.90261C1.75069 15.179 0 16.9296 0 19.082V30.6927C0 30.8024 0.0082416 30.91 0.0164832 31.0171C0.0134468 31.0449 0 31.0696 0 31.0982C0 31.2063 0.0238573 31.3078 0.0646314 31.401C0.402537 33.3777 2.12416 34.8885 4.19584 34.8885H4.21796C4.7888 37.066 6.76765 38.6788 9.12128 38.6788C11.4753 38.6788 13.4538 37.066 14.025 34.8885H34.4334C35.0047 37.066 36.9835 38.6788 39.3371 38.6788C41.7137 38.6788 43.7086 37.0344 44.2569 34.8252C45.8497 34.5276 47.0001 33.1565 47.0001 31.5255ZM9.12128 37.1628C7.15891 37.1628 5.56308 35.5669 5.56308 33.6041C5.56308 31.6418 7.15934 30.0459 9.12128 30.0459C11.0832 30.0459 12.6799 31.6418 12.6799 33.6041C12.6799 35.5669 11.0832 37.1628 9.12128 37.1628ZM39.3367 37.1628C37.3743 37.1628 35.7785 35.5669 35.7785 33.6041C35.7785 31.6418 37.3748 30.0459 39.3367 30.0459C41.2986 30.0459 42.8953 31.6418 42.8953 33.6041C42.8953 35.5669 41.2991 37.1628 39.3367 37.1628ZM44.3914 33.2059C44.1867 30.5938 42.0005 28.5295 39.3367 28.5295C36.617 28.5295 34.3965 30.6818 34.2742 33.3725H14.1842C14.0619 30.6823 11.8414 28.5295 9.12128 28.5295C6.40632 28.5295 4.1889 30.6745 4.0592 33.3586C3.0598 33.3074 2.20875 32.7106 1.7932 31.8565H2.4586C2.87718 31.8565 3.21639 31.5173 3.21639 31.0982C3.21639 30.6792 2.87718 30.3405 2.4586 30.3405H1.51602V19.082C1.51602 17.7655 2.58656 16.695 3.90261 16.695H26.1484C27.6649 16.695 29.1089 17.2667 30.2146 18.3047L37.1614 24.8281C37.3019 24.9604 37.4875 25.0337 37.6806 25.0337H38.9923C40.5799 25.0337 42.0347 25.6089 43.1643 26.5589C42.7678 26.584 42.4516 26.905 42.4516 27.308C42.4516 27.727 42.7912 28.0662 43.2098 28.0662H44.4756C45.1106 29.0691 45.4841 30.2533 45.4841 31.5255C45.4841 32.2725 45.0429 32.9157 44.3914 33.2059Z" fill="#323232"/>
<path d="M32.5959 28.0662H15.1606C14.7416 28.0662 14.4023 28.4049 14.4023 28.824C14.4023 29.243 14.7416 29.5822 15.1606 29.5822H32.5959C33.0145 29.5822 33.3541 29.243 33.3541 28.824C33.3541 28.4049 33.0145 28.0662 32.5959 28.0662Z" fill="#FF540E"/>
<path d="M21.2267 25.0339V18.2268C21.2267 17.8078 20.8871 17.469 20.4685 17.469H3.791C3.37241 17.469 3.0332 17.8078 3.0332 18.2268V25.0339C3.0332 25.4529 3.37241 25.7921 3.791 25.7921H20.4685C20.8871 25.7921 21.2267 25.4529 21.2267 25.0339ZM19.7103 24.2761H4.54922V18.985H19.7103V24.2761Z" fill="#323232"/>
<path d="M29.3771 18.9212C28.3777 17.9847 27.0721 17.469 25.7018 17.469H23.5C23.0814 17.469 22.7422 17.8078 22.7422 18.2268V25.0339C22.7422 25.4529 23.0814 25.7921 23.5 25.7921H34.7966C35.108 25.7921 35.3874 25.6017 35.5019 25.3124C35.6164 25.0231 35.5418 24.6934 35.315 24.4808L29.3771 18.9212ZM24.2582 24.2761V18.985H25.7018C26.6856 18.985 27.6229 19.355 28.3404 20.0274L32.8776 24.2761H24.2582Z" fill="#323232"/>
<path d="M9.12084 31.0151C7.69288 31.0151 6.53125 32.1763 6.53125 33.6043C6.53125 35.0327 7.69288 36.1939 9.12084 36.1939C10.5488 36.1939 11.7104 35.0327 11.7104 33.6043C11.7104 32.1763 10.5488 31.0151 9.12084 31.0151ZM9.12084 34.6779C8.52875 34.6779 8.04727 34.1968 8.04727 33.6043C8.04727 33.0122 8.52875 32.5312 9.12084 32.5312C9.7125 32.5312 10.1944 33.0122 10.1944 33.6043C10.1944 34.1968 9.7125 34.6779 9.12084 34.6779Z" fill="#FF540E"/>
<path d="M39.3357 31.0151C37.9077 31.0151 36.7461 32.1763 36.7461 33.6043C36.7461 35.0327 37.9077 36.1939 39.3357 36.1939C40.7637 36.1939 41.9253 35.0327 41.9253 33.6043C41.9253 32.1763 40.7641 31.0151 39.3357 31.0151ZM39.3357 34.6779C38.744 34.6779 38.2621 34.1968 38.2621 33.6043C38.2621 33.0122 38.744 32.5312 39.3357 32.5312C39.9278 32.5312 40.4093 33.0122 40.4093 33.6043C40.4093 34.1968 39.9278 34.6779 39.3357 34.6779Z" fill="#FF540E"/>
<path d="M14.4028 9.87265H21.2255C21.6441 9.87265 21.9833 9.53345 21.9833 9.11443C21.9833 8.69541 21.6441 8.3562 21.2255 8.3562H14.4028C13.9842 8.3562 13.6445 8.69541 13.6445 9.11443C13.6445 9.53345 13.9842 9.87265 14.4028 9.87265Z" fill="#FF540E"/>
<path d="M8.3383 12.1471H18.9513C19.3699 12.1471 19.7091 11.8079 19.7091 11.3888C19.7091 10.9698 19.3699 10.6306 18.9513 10.6306H8.3383C7.91972 10.6306 7.58008 10.9698 7.58008 11.3888C7.58008 11.8079 7.91972 12.1471 8.3383 12.1471Z" fill="#FF540E"/>
</g>
<defs>
<clipPath id="clip0_1_41319">
<rect width="47" height="47" fill="white"/>
</clipPath>
</defs>
</svg>
