<svg aria-hidden="true" style="position: absolute; width: 0; height: 0; overflow: hidden;" version="1.1" xmlns="http://www.w3.org/2000/svg" xmlns:xlink="http://www.w3.org/1999/xlink">
<defs>
<symbol id="icon-phone" viewBox="0 0 32 32">
<path d="M22 20c-2 2-2 4-4 4s-4-2-6-4-4-4-4-6 2-2 4-4-4-8-6-8-6 6-6 6c0 4 4.109 12.109 8 16s12 8 16 8c0 0 6-4 6-6s-6-8-8-6z"></path>
</symbol>
<symbol id="icon-list2" viewBox="0 0 32 32">
<path d="M12 2h20v4h-20v-4zM12 14h20v4h-20v-4zM12 26h20v4h-20v-4zM0 4c0-2.209 1.791-4 4-4s4 1.791 4 4c0 2.209-1.791 4-4 4s-4-1.791-4-4zM0 16c0-2.209 1.791-4 4-4s4 1.791 4 4c0 2.209-1.791 4-4 4s-4-1.791-4-4zM0 28c0-2.209 1.791-4 4-4s4 1.791 4 4c0 2.209-1.791 4-4 4s-4-1.791-4-4z"></path>
</symbol>
<symbol id="icon-cross" viewBox="0 0 32 32">
<path d="M31.708 25.708c-0-0-0-0-0-0l-9.708-9.708 9.708-9.708c0-0 0-0 0-0 0.105-0.105 0.18-0.227 0.229-0.357 0.133-0.356 0.057-0.771-0.229-1.057l-4.586-4.586c-0.286-0.286-0.702-0.361-1.057-0.229-0.13 0.048-0.252 0.124-0.357 0.228 0 0-0 0-0 0l-9.708 9.708-9.708-9.708c-0-0-0-0-0-0-0.105-0.104-0.227-0.18-0.357-0.228-0.356-0.133-0.771-0.057-1.057 0.229l-4.586 4.586c-0.286 0.286-0.361 0.702-0.229 1.057 0.049 0.13 0.124 0.252 0.229 0.357 0 0 0 0 0 0l9.708 9.708-9.708 9.708c-0 0-0 0-0 0-0.104 0.105-0.18 0.227-0.229 0.357-0.133 0.355-0.057 0.771 0.229 1.057l4.586 4.586c0.286 0.286 0.702 0.361 1.057 0.229 0.13-0.049 0.252-0.124 0.357-0.229 0-0 0-0 0-0l9.708-9.708 9.708 9.708c0 0 0 0 0 0 0.105 0.105 0.227 0.18 0.357 0.229 0.356 0.133 0.771 0.057 1.057-0.229l4.586-4.586c0.286-0.286 0.362-0.702 0.229-1.057-0.049-0.13-0.124-0.252-0.229-0.357z"></path>
</symbol>
<symbol id="icon-facebook2" viewBox="0 0 32 32">
<path d="M29 0h-26c-1.65 0-3 1.35-3 3v26c0 1.65 1.35 3 3 3h13v-14h-4v-4h4v-2c0-3.306 2.694-6 6-6h4v4h-4c-1.1 0-2 0.9-2 2v2h6l-1 4h-5v14h9c1.65 0 3-1.35 3-3v-26c0-1.65-1.35-3-3-3z"></path>
</symbol>
<symbol id="icon-whatsapp" viewBox="0 0 32 32">
<path d="M27.281 4.65c-2.994-3-6.975-4.65-11.219-4.65-8.738 0-15.85 7.112-15.85 15.856 0 2.794 0.731 5.525 2.119 7.925l-2.25 8.219 8.406-2.206c2.319 1.262 4.925 1.931 7.575 1.931h0.006c0 0 0 0 0 0 8.738 0 15.856-7.113 15.856-15.856 0-4.238-1.65-8.219-4.644-11.219zM16.069 29.050v0c-2.369 0-4.688-0.637-6.713-1.837l-0.481-0.288-4.987 1.306 1.331-4.863-0.313-0.5c-1.325-2.094-2.019-4.519-2.019-7.012 0-7.269 5.912-13.181 13.188-13.181 3.519 0 6.831 1.375 9.319 3.862 2.488 2.494 3.856 5.8 3.856 9.325-0.006 7.275-5.919 13.188-13.181 13.188zM23.294 19.175c-0.394-0.2-2.344-1.156-2.706-1.288s-0.625-0.2-0.894 0.2c-0.262 0.394-1.025 1.288-1.256 1.556-0.231 0.262-0.462 0.3-0.856 0.1s-1.675-0.619-3.188-1.969c-1.175-1.050-1.975-2.35-2.206-2.744s-0.025-0.613 0.175-0.806c0.181-0.175 0.394-0.463 0.594-0.694s0.262-0.394 0.394-0.662c0.131-0.262 0.069-0.494-0.031-0.694s-0.894-2.15-1.219-2.944c-0.319-0.775-0.65-0.669-0.894-0.681-0.231-0.012-0.494-0.012-0.756-0.012s-0.694 0.1-1.056 0.494c-0.363 0.394-1.387 1.356-1.387 3.306s1.419 3.831 1.619 4.1c0.2 0.262 2.794 4.269 6.769 5.981 0.944 0.406 1.681 0.65 2.256 0.837 0.95 0.3 1.813 0.256 2.494 0.156 0.762-0.113 2.344-0.956 2.675-1.881s0.331-1.719 0.231-1.881c-0.094-0.175-0.356-0.275-0.756-0.475z"></path>
</symbol>
</defs>
<symbol id="icon-menu" viewBox="0 0 32 32">
<path d="M2 6h28v6h-28zM2 14h28v6h-28zM2 22h28v6h-28z"></path>
</symbol>
<defs>

<symbol id="icon-clipboard" viewBox="0 0 32 32">
<path d="M29 4h-9c0-2.209-1.791-4-4-4s-4 1.791-4 4h-9c-0.552 0-1 0.448-1 1v26c0 0.552 0.448 1 1 1h26c0.552 0 1-0.448 1-1v-26c0-0.552-0.448-1-1-1zM16 2c1.105 0 2 0.895 2 2s-0.895 2-2 2c-1.105 0-2-0.895-2-2s0.895-2 2-2zM28 30h-24v-24h4v3c0 0.552 0.448 1 1 1h14c0.552 0 1-0.448 1-1v-3h4v24z"></path>
<path d="M14 26.828l-6.414-7.414 1.828-1.828 4.586 3.586 8.586-7.586 1.829 1.828z"></path>
</symbol>
<symbol id="icon-clock" viewBox="0 0 32 32">
<path d="M16 32c-8.823 0-16-7.177-16-16s7.177-16 16-16c8.823 0 16 7.177 16 16s-7.177 16-16 16zM16 2c-7.72 0-14 6.28-14 14s6.28 14 14 14c7.72 0 14-6.28 14-14s-6.28-14-14-14z"></path>
<path fill="#ff540e" d="M23 24.667c-0.256 0-0.512-0.097-0.707-0.293l-7-7c-0.188-0.188-0.293-0.443-0.293-0.707v-9.334c0-0.552 0.448-1 1-1s1 0.448 1 1v8.919l6.707 6.707c0.391 0.391 0.391 1.024 0 1.415-0.195 0.196-0.451 0.293-0.707 0.293z"></path>
</symbol>
<symbol id="icon-contact-form" viewBox="0 0 32 32">
<path d="M30.677 7.096c-1.253-0.724-2.862-0.292-3.586 0.961l-2.329 4.034v-3.341c0-0.345-0.28-0.625-0.625-0.625s-0.625 0.28-0.625 0.625v5.506l-6.864 11.889c-0.044 0.075-0.071 0.159-0.080 0.246l-0.47 4.359h-14.836v-29.5h22.25v1.875c0 0.345 0.279 0.625 0.625 0.625s0.625-0.28 0.625-0.625v-2.5c0-0.345-0.28-0.625-0.625-0.625h-23.5c-0.346 0-0.625 0.28-0.625 0.625v30.75c0 0.345 0.279 0.625 0.625 0.625h23.5c0.345 0 0.625-0.28 0.625-0.625v-8.784l6.876-11.909c0.723-1.253 0.292-2.862-0.961-3.586zM17.708 27.479l1.802 1.040-2.078 1.517 0.276-2.558zM23.512 30.75h-4.938l2.448-1.788c0.070-0.051 0.129-0.117 0.172-0.192l2.317-4.014v5.994zM20.425 27.604l-2.382-1.375 9.148-15.844 2.381 1.375-9.148 15.844zM30.555 10.057l-0.357 0.62-2.381-1.375 0.357-0.62c0.379-0.656 1.222-0.882 1.878-0.503s0.883 1.222 0.503 1.878z"></path>
<path fill="#ff540e" style="fill: var(--color3, #ff540e)" d="M24.137 5.313c-0.165 0-0.326 0.067-0.442 0.183s-0.183 0.277-0.183 0.442c0 0.165 0.067 0.326 0.183 0.442s0.278 0.183 0.442 0.183 0.326-0.067 0.442-0.183c0.116-0.116 0.183-0.277 0.183-0.442s-0.067-0.326-0.183-0.442c-0.116-0.116-0.277-0.183-0.442-0.183z"></path>
<path fill="#ff540e" style="fill: var(--color3, #ff540e)" d="M18.7 6.625h-12.625c-0.346 0-0.625 0.28-0.625 0.625s0.279 0.625 0.625 0.625h12.625c0.345 0 0.625-0.28 0.625-0.625s-0.28-0.625-0.625-0.625z"></path>
<path d="M18.7 10.125h-12.625c-0.346 0-0.625 0.28-0.625 0.625s0.279 0.625 0.625 0.625h12.625c0.345 0 0.625-0.28 0.625-0.625s-0.28-0.625-0.625-0.625z"></path>
<path d="M18.7 13.625h-4.641c-0.346 0-0.625 0.28-0.625 0.625s0.279 0.625 0.625 0.625h4.641c0.345 0 0.625-0.28 0.625-0.625s-0.28-0.625-0.625-0.625z"></path>
<path fill="#ff540e" style="fill: var(--color3, #ff540e)" d="M19.325 17.75c0-0.345-0.28-0.625-0.625-0.625h-12.625c-0.346 0-0.625 0.28-0.625 0.625s0.279 0.625 0.625 0.625h12.625c0.345 0 0.625-0.28 0.625-0.625z"></path>
<path d="M16.636 21.25c0-0.345-0.28-0.625-0.625-0.625h-3.906c-0.346 0-0.625 0.28-0.625 0.625s0.279 0.625 0.625 0.625h3.906c0.345 0 0.625-0.28 0.625-0.625z"></path>
<path fill="#ff540e" style="fill: var(--color3, #ff540e)" d="M6.075 25.375h5.5c0.345 0 0.625-0.28 0.625-0.625s-0.28-0.625-0.625-0.625h-5.5c-0.346 0-0.625 0.28-0.625 0.625s0.279 0.625 0.625 0.625z"></path>
<path d="M6.075 14.875h4.166c0.346 0 0.625-0.28 0.625-0.625s-0.279-0.625-0.625-0.625h-4.166c-0.346 0-0.625 0.28-0.625 0.625s0.279 0.625 0.625 0.625z"></path>
<path d="M6.075 21.875h3.219c0.345 0 0.625-0.28 0.625-0.625s-0.28-0.625-0.625-0.625h-3.219c-0.346 0-0.625 0.28-0.625 0.625s0.279 0.625 0.625 0.625z"></path>
</symbol>
<symbol id="icon-credit-card" viewBox="0 0 32 32">
<path d="M31.333 13.333h-30.667c-0.4 0-0.667 0.267-0.667 0.667v9.333c0 1.867 1.467 3.333 3.333 3.333h25.333c1.867 0 3.333-1.467 3.333-3.333v-9.333c0-0.4-0.267-0.667-0.667-0.667zM4.667 18.667h5.333c0.4 0 0.667 0.267 0.667 0.667s-0.267 0.667-0.667 0.667h-5.333c-0.4-0-0.667-0.267-0.667-0.667s0.267-0.667 0.667-0.667zM14 22.667h-9.333c-0.4 0-0.667-0.267-0.667-0.667s0.267-0.667 0.667-0.667h9.333c0.4 0 0.667 0.267 0.667 0.667s-0.267 0.667-0.667 0.667zM25.333 22.667c-0.533 0-0.933-0.133-1.333-0.4-0.4 0.267-0.8 0.4-1.333 0.4-1.467 0-2.667-1.2-2.667-2.667s1.2-2.667 2.667-2.667c0.533 0 0.933 0.133 1.333 0.4 0.4-0.267 0.8-0.4 1.333-0.4 1.467 0 2.667 1.2 2.667 2.667s-1.2 2.667-2.667 2.667z"></path>
<path d="M28.667 5.333h-25.333c-1.867 0-3.333 1.467-3.333 3.333v1.333c0 0.4 0.267 0.667 0.667 0.667h30.667c0.4 0 0.667-0.267 0.667-0.667v-1.333c-0-1.867-1.467-3.333-3.333-3.333z"></path>
</symbol>
<symbol id="icon-donation" viewBox="0 0 32 32">
<path  d="M0.074 21.92c0.109 0.203 0.321 0.33 0.551 0.33h3.125v9.125c0 0.345 0.28 0.625 0.625 0.625h23.25c0.345 0 0.625-0.28 0.625-0.625v-9.125h3.125c0.231 0 0.442-0.127 0.551-0.33s0.097-0.45-0.031-0.642l-3.75-5.625c-0.116-0.174-0.311-0.278-0.52-0.278h-2.375c-0.345 0-0.625 0.28-0.625 0.625s0.28 0.625 0.625 0.625h2.041l2.917 4.375h-10.123l-2.917-4.375h2.457c0.345 0 0.625-0.28 0.625-0.625s-0.28-0.625-0.625-0.625c-0.714 0-14.559 0-15.25 0-0.209 0-0.404 0.104-0.52 0.278l-3.75 5.625c-0.128 0.192-0.14 0.438-0.031 0.642zM5 22.25h7.25c0.209 0 0.404-0.104 0.52-0.278l2.605-3.907v12.686h-10.375v-8.5zM19.23 21.972c0.116 0.174 0.311 0.278 0.52 0.278h7.25v8.5h-10.375v-12.686l2.605 3.907zM4.71 16.625h10.123l-2.917 4.375h-10.123l2.917-4.375z"></path>
<path fill="#ff540e" d="M12.25 1.564c-0.511-0.75-1.392-1.564-2.813-1.564-2.003 0-3.437 1.614-3.437 3.561 0 2.161 1.749 3.581 4.397 5.729 0.464 0.376 0.944 0.766 1.453 1.19 0.116 0.097 0.258 0.145 0.4 0.145s0.284-0.048 0.4-0.145c0.51-0.425 0.989-0.814 1.453-1.19 2.648-2.149 4.397-3.568 4.397-5.729 0-1.948-1.436-3.561-3.438-3.561-1.421 0-2.302 0.814-2.812 1.564zM17.25 3.561c0 1.566-1.565 2.836-3.934 4.758-0.344 0.279-0.697 0.566-1.066 0.869-0.368-0.303-0.721-0.59-1.066-0.869-2.369-1.923-3.934-3.193-3.934-4.758 0-1.317 0.94-2.311 2.188-2.311 1.632 0 2.19 1.817 2.212 1.892 0.077 0.268 0.322 0.452 0.601 0.452s0.524-0.184 0.601-0.452c0.005-0.019 0.564-1.892 2.212-1.892 1.247 0 2.188 0.993 2.188 2.311z"></path>
<path fill="#ff540e" d="M23.5 12.5c0.147 0 0.294-0.052 0.412-0.155 0.339-0.297 0.659-0.57 0.969-0.834 1.738-1.482 2.995-2.552 2.995-4.144 0-1.503-1.098-2.68-2.5-2.68-0.892 0-1.49 0.454-1.875 0.94-0.385-0.486-0.983-0.94-1.875-0.94-1.402 0-2.5 1.177-2.5 2.68 0 1.592 1.256 2.663 2.995 4.144 0.309 0.264 0.629 0.536 0.969 0.834 0.118 0.103 0.265 0.155 0.412 0.155zM20.375 7.367c0-0.693 0.438-1.43 1.25-1.43 0.921 0 1.258 1.13 1.273 1.184 0.075 0.27 0.321 0.458 0.602 0.458s0.528-0.187 0.602-0.458c0.014-0.048 0.349-1.184 1.273-1.184 0.812 0 1.25 0.737 1.25 1.43 0 1.015-0.962 1.835-2.555 3.193-0.185 0.158-0.374 0.319-0.57 0.487-0.195-0.168-0.384-0.329-0.57-0.487-1.593-1.358-2.555-2.178-2.555-3.193z"></path>
<path fill="#ff540e" d="M22.438 16.625c0.345 0 0.625-0.28 0.625-0.625s-0.28-0.625-0.625-0.625c-0.345 0-0.625 0.28-0.625 0.625s0.28 0.625 0.625 0.625z"></path>
</symbol>
<symbol id="icon-growth" viewBox="0 0 32 32">
<path d="M16.631 14.819h-5.138c-0.387 0-0.65 0.325-0.65 0.65v15.188c0 0.394 0.325 0.65 0.65 0.65h5.138c0.325 0 0.65-0.262 0.65-0.65v-15.188c0-0.387-0.325-0.65-0.65-0.65zM15.981 30.006h-3.837v-13.881h3.837v13.881z"></path>
<path d="M6.482 17.037h-5.138c-0.387 0-0.65 0.325-0.65 0.65v12.975c0 0.394 0.325 0.65 0.65 0.65h5.138c0.325 0 0.65-0.262 0.65-0.65v-12.975c0-0.394-0.325-0.65-0.65-0.65zM5.832 30.006h-3.837v-11.669h3.837v11.669z"></path>
<path d="M31.201 9.862l-6.437-8.931c-0.262-0.325-0.781-0.325-1.037 0l-6.438 8.931c-0.262 0.369-0.162 0.975 0.519 0.975h3.188v19.819c0 0.394 0.325 0.65 0.65 0.65h5.138c0.325 0 0.65-0.262 0.712-0.65v-19.812h3.187c0.637 0 0.775-0.65 0.519-0.981zM26.776 9.538c-0.387 0-0.65 0.325-0.65 0.65v19.819h-3.9v-19.819c0-0.394-0.325-0.65-0.65-0.65h-2.6l5.2-7.169 5.2 7.169h-2.6z"></path>
</symbol>
<symbol id="icon-like" viewBox="0 0 32 32">
<path d="M28.921 29.136c0.542-0.977 0.542-1.947 0.455-2.563 1.332-1.205 1.566-2.536 1.519-3.473-0.027-0.542-0.147-1.004-0.274-1.345l-1.7 7.381zM28.921 29.136c-0.709 1.278-2.108 2.148-4.156 2.583-0.87 0.187-1.914 0.281-3.112 0.281-0.696 0-1.445-0.033-2.242-0.094-4.396 0.087-8.679-0.455-8.92-0.488l-1.573-0.187c-0.455 0.321-1.010 0.509-1.606 0.509h-4.082c-1.532 0-2.784-1.245-2.784-2.784v-10.874c0-1.532 1.245-2.784 2.784-2.784h4.082c0.445 0 0.861 0.103 1.233 0.287l20.374 13.551zM21.513 13.578c0.013-0.003 0.028-0.007 0.043-0.010s0.030-0.007 0.043-0.010c2.054-0.448 5.735-0.723 7.013 0.442 1.084 0.99 0.315 2.302 0.227 2.443-0.248 0.375-0.174 0.863 0.161 1.164l0.001 0.001c0.029 0.028 0.709 0.683 0.742 1.558M21.513 13.578l-0.017-0.102c-0.001 0-0.003 0-0.004 0.001M21.513 13.578l-0.025-0.1c0.001-0 0.003-0.001 0.004-0.001M21.513 13.578c-0.368 0.060-0.756 0.14-1.164 0.234l-0.967-11.176M21.492 13.476c0.014-0.003 0.029-0.007 0.042-0.010 0.009-0.002 0.018-0.004 0.026-0.006 0.005-0.001 0.010-0.002 0.015-0.004l0.003-0.001c1.034-0.226 2.476-0.407 3.821-0.386 0.673 0.011 1.325 0.072 1.891 0.205 0.565 0.133 1.054 0.34 1.392 0.648l0 0c0.573 0.524 0.657 1.136 0.585 1.631-0.071 0.49-0.293 0.867-0.34 0.942l-0.002 0.003c-0.218 0.33-0.155 0.762 0.143 1.031l0.004 0.004-0 0c-0.002-0.002 0.013 0.013 0.034 0.033s0.050 0.053 0.085 0.093c0.070 0.080 0.162 0.195 0.256 0.339 0.186 0.286 0.38 0.693 0.398 1.163M21.492 13.476c-0.37 0.061-0.759 0.141-1.167 0.235l-0-0.001-0.012 0.004c-0.401 0.144-0.948 0.123-1.355-0.241l-0-0c-0.411-0.364-0.609-0.971-0.557-1.931s0.353-2.248 0.914-3.949v-0c0.37-1.124 0.564-2.115 0.577-2.947s-0.153-1.514-0.511-2.010M29.847 19.161c0-0 0-0 0-0l-0.103 0.005M29.847 19.161c0 0 0 0 0 0l-0.103 0.004M29.847 19.161c0.028 0.634-0.272 1.268-0.865 1.882M29.744 19.165c0.027 0.596-0.254 1.205-0.836 1.807M28.908 20.972l0.075 0.071c0 0-0 0-0 0M28.908 20.972l0.074 0.072c0-0 0-0 0-0M28.908 20.972l0.29 2.203M28.982 21.043c-0.25 0.261-0.296 0.658-0.107 0.965l0.015 0.025v0.005l0 0.001c0.008 0.015 0.019 0.038 0.033 0.066 0.027 0.057 0.064 0.14 0.102 0.242 0.075 0.205 0.155 0.493 0.173 0.827M29.198 23.175c0.049 0.92-0.396 1.726-1.299 2.403M29.198 23.175c0-0-0-0-0-0l-1.299 2.403M27.899 25.578c-0.279 0.214-0.391 0.582-0.273 0.914l0.006 0.017v0.004c0.002 0.007 0.005 0.017 0.008 0.030 0.007 0.028 0.017 0.068 0.028 0.119 0.021 0.101 0.043 0.244 0.050 0.413 0.014 0.339-0.033 0.789-0.279 1.229-0.47 0.842-1.504 1.427-3.026 1.75l3.487-4.475zM19.382 2.636c-0.605-0.838-1.607-0.939-1.969-0.946l-0.061-0.001-0.031 0.052c-0.050 0.085-0.085 0.208-0.11 0.347-0.026 0.142-0.043 0.311-0.051 0.492-0.016 0.363 0.002 0.787 0.061 1.169h-0l0 0.002c0.024 0.137 0.012 0.272-0.035 0.394l-0.001 0.001c-0.063 0.173-0.828 2.265-1.952 4.612-0.562 1.173-1.213 2.408-1.91 3.497-0.698 1.091-1.438 2.028-2.175 2.613l-0.006 0.005-0.005 0.006c-0.806 0.867-1.146 1.883-1.269 2.339l-0.008 0.029 0.009 0.029c0.078 0.252 0.123 0.523 0.123 0.799v10.881c0 0.194-0.019 0.387-0.058 0.567l-0.024 0.111 0.788 0.094h0.012c0.211 0.028 4.481 0.567 8.707 0.475h0.089c2.023 0.161 3.679 0.114 4.904-0.149l-5.030-27.417zM19.382 2.636l-0.084 0.060M19.382 2.636l-0.084 0.060M19.382 2.636c0 0 0 0 0 0l-0.084 0.060M19.382 2.636l-0.084 0.060M30.539 21.691l-0.036 0.046 0.020 0.054c0.124 0.333 0.242 0.784 0.268 1.314v0c0.046 0.913-0.181 2.212-1.485 3.391l-0.041 0.037 0.008 0.054c0.085 0.602 0.085 1.547-0.443 2.498-0.689 1.242-2.055 2.101-4.087 2.532l-0 0c-0.861 0.185-1.897 0.279-3.090 0.279-0.693 0-1.44-0.033-2.234-0.093l0-0-0.010 0c-4.389 0.087-8.665-0.454-8.904-0.488l-0.002-0-1.612-0.192-0.032 0.023c-0.438 0.309-0.973 0.49-1.546 0.49h-4.082c-1.476 0-2.681-1.199-2.681-2.681v-10.874c0-1.476 1.199-2.681 2.681-2.681h4.082c0.464 0 0.896 0.116 1.276 0.322l0.097 0.053 0.046-0.101c0.277-0.608 0.686-1.3 1.292-1.938 0.034-0.034 0.060-0.060 0.090-0.080l0 0 0.006-0.004c0.537-0.413 1.092-1.090 1.634-1.901 0.543-0.813 1.079-1.768 1.576-2.745 0.993-1.954 1.835-4.002 2.277-5.189l0.009-0.024-0.003-0.025c-0.046-0.364-0.091-0.938-0.032-1.525 0.059-0.59 0.219-1.179 0.57-1.587v-0c0.308-0.358 0.741-0.553 1.213-0.553 0.514 0 2.242 0.12 3.323 1.61 1.028 1.418 1.093 3.558 0.16 6.398-0.791 2.4-0.869 3.479-0.841 3.927l0.008 0.121 0.118-0.026c0.357-0.079 0.707-0.152 1.037-0.212h0.009l0.012-0.002c0.064-0.014 1.527-0.339 3.274-0.419h0c2.494-0.12 4.266 0.316 5.299 1.258 1.408 1.285 1.25 2.939 0.824 4.001l-0.022 0.055 0.036 0.047c0.367 0.479 0.81 1.255 0.849 2.243v0c0.039 0.895-0.265 1.768-0.908 2.588zM3.231 30.035h0.103v-0.007h3.979c0.592 0 1.080-0.481 1.080-1.080v-10.874c0-0.592-0.481-1.080-1.080-1.080h-4.082c-0.592 0-1.080 0.481-1.080 1.080v10.881c0 0.592 0.481 1.080 1.080 1.080zM28.881 22.021v0z"></path>
<path d="M2.976 24c0-1.187 0.966-2.153 2.153-2.153s2.153 0.966 2.153 2.153c0 1.188-0.966 2.153-2.153 2.153s-2.153-0.966-2.153-2.153zM4.091 24c0 0.573 0.466 1.039 1.039 1.039s1.039-0.465 1.039-1.039c0-0.573-0.466-1.038-1.039-1.038s-1.039 0.465-1.039 1.038z"></path>
<path d="M12.997 4.794h-7.266c-0.389 0-0.704-0.315-0.704-0.704s0.315-0.704 0.704-0.704h7.266c0.389 0 0.704 0.315 0.704 0.704s-0.315 0.704-0.704 0.704z"></path>
<path d="M12.053 7.692h-9.333c-0.292 0-0.564-0.3-0.564-0.717s0.271-0.717 0.564-0.717h9.333c0.292 0 0.563 0.3 0.563 0.717s-0.271 0.717-0.563 0.717z"></path>
</symbol>
<symbol id="icon-money" viewBox="0 0 32 32">
<path d="M0 9.046v4.496c2.436-0.096 4.4-2.060 4.496-4.496l-4.496 0z"></path>
<path d="M28.25 13.542v-4.496h-4.496c0.096 2.436 2.060 4.4 4.496 4.496z"></path>
<path d="M0 22.208v4.496h4.496c-0.094-2.437-2.059-4.402-4.496-4.496z"></path>
<path d="M28.25 20.331v-4.911c-3.471-0.098-6.276-2.903-6.373-6.373h-15.503c-0.098 3.471-2.903 6.275-6.373 6.373v4.911c3.472 0.095 6.278 2.902 6.373 6.373h15.503c0.099-3.47 2.903-6.274 6.373-6.373zM7.838 18.813h-3.068v-1.875h3.068v1.875zM14.125 21.897c-2.218 0-4.022-1.804-4.022-4.022s1.804-4.022 4.022-4.022 4.022 1.804 4.022 4.022c0 2.218-1.804 4.022-4.022 4.022zM23.479 18.813h-3.068v-1.875h3.068v1.875z"></path>
<path d="M32 5.296h-28.25v1.875h26.375v15.783h1.875v-17.658z"></path>
<path d="M28.25 22.208c-2.436 0.098-4.399 2.060-4.496 4.496h4.496l0-4.496z"></path>
<path d="M14.124 15.728c-1.184 0-2.147 0.963-2.147 2.147s0.963 2.147 2.147 2.147c1.184 0 2.147-0.963 2.147-2.147s-0.963-2.147-2.147-2.147z"></path>
</symbol>
<symbol id="icon-percentage1" viewBox="0 0 32 32">
<path stroke-linejoin="miter" stroke-linecap="butt" stroke-miterlimit="4" stroke-width="0.3902" d="M27.555 25.227l0.108-0.162c0.484 0.324 1.139 0.194 1.463-0.291v0c1.752-2.621 2.678-5.655 2.678-8.774 0-4.222-1.644-8.19-4.629-11.176s-6.954-4.629-11.176-4.629-8.19 1.644-11.176 4.629c0 0 0 0 0 0M27.555 25.227l-22.731-20.402M27.555 25.227l0.108-0.162c-0.484-0.324-0.614-0.979-0.291-1.463 1.519-2.272 2.322-4.9 2.322-7.601 0-7.552-6.143-13.695-13.695-13.695s-13.695 6.143-13.695 13.695c0 7.552 6.143 13.695 13.695 13.695 2.505 0 4.954-0.682 7.085-1.972 0.498-0.302 1.147-0.143 1.449 0.356s0.143 1.147-0.356 1.449M27.555 25.227l-3.377 4.301M4.824 4.824c-2.985 2.986-4.629 6.954-4.629 11.176s1.644 8.19 4.629 11.176c2.986 2.985 6.954 4.629 11.176 4.629 2.89 0 5.718-0.788 8.178-2.278M4.824 4.824l19.354 24.703"></path>
<path stroke-linejoin="miter" stroke-linecap="butt" stroke-miterlimit="4" stroke-width="0.3902" d="M12.236 23.178v0c-0.512-0.277-0.703-0.917-0.426-1.43v-0l6.757-12.5c0.277-0.512 0.917-0.703 1.43-0.426v0c0.512 0.277 0.703 0.917 0.426 1.43l-6.757 12.5c-0.191 0.353-0.554 0.553-0.929 0.553-0.169 0-0.341-0.041-0.501-0.127z"></path>
<path stroke-linejoin="miter" stroke-linecap="butt" stroke-miterlimit="4" stroke-width="0.3902" d="M10.813 8.695c1.615 0 2.93 1.315 2.93 2.93s-1.315 2.93-2.93 2.93c-1.615 0-2.93-1.315-2.93-2.93s1.314-2.93 2.93-2.93zM9.992 11.625c0 0.452 0.368 0.82 0.82 0.82s0.82-0.368 0.82-0.82c0-0.452-0.368-0.82-0.82-0.82s-0.82 0.368-0.82 0.82z"></path>
<path stroke-linejoin="miter" stroke-linecap="butt" stroke-miterlimit="4" stroke-width="0.3902" d="M24.055 20.375c0 1.615-1.314 2.93-2.93 2.93s-2.93-1.314-2.93-2.93c0-1.615 1.314-2.93 2.93-2.93s2.93 1.314 2.93 2.93zM21.945 20.375c0-0.452-0.368-0.82-0.82-0.82s-0.82 0.368-0.82 0.82c0 0.452 0.368 0.82 0.82 0.82s0.82-0.368 0.82-0.82z"></path>
</symbol>
<symbol id="icon-van" viewBox="0 0 32 32">
<path d="M32 21.464c0-1.135-0.35-2.19-0.946-3.064-0.031-0.078-0.083-0.142-0.146-0.195-0.995-1.328-2.577-2.193-4.36-2.193h-0.689l-4.581-4.302c-0.945-0.887-2.179-1.375-3.475-1.375h-15.146c-1.465 0-2.657 1.192-2.657 2.657v7.905c0 0.075 0.006 0.148 0.011 0.221-0.002 0.019-0.011 0.036-0.011 0.055 0 0.074 0.016 0.143 0.044 0.206 0.23 1.346 1.402 2.374 2.813 2.374h0.015c0.389 1.483 1.736 2.581 3.338 2.581s2.95-1.098 3.339-2.581h13.895c0.389 1.483 1.736 2.581 3.339 2.581 1.618 0 2.976-1.12 3.35-2.624 1.084-0.203 1.868-1.136 1.868-2.247zM6.21 25.302c-1.336 0-2.423-1.087-2.423-2.423s1.087-2.423 2.423-2.423 2.423 1.087 2.423 2.423c0 1.336-1.087 2.423-2.423 2.423zM26.782 25.302c-1.336 0-2.423-1.087-2.423-2.423s1.087-2.423 2.423-2.423 2.423 1.087 2.423 2.423c0 1.336-1.087 2.423-2.423 2.423zM30.224 22.608c-0.139-1.778-1.628-3.184-3.442-3.184-1.852 0-3.364 1.465-3.447 3.297h-13.678c-0.083-1.832-1.595-3.297-3.447-3.297-1.848 0-3.358 1.46-3.447 3.288-0.68-0.035-1.26-0.441-1.543-1.023h0.453c0.285 0 0.516-0.231 0.516-0.516s-0.231-0.516-0.516-0.516h-0.642v-7.665c0-0.896 0.729-1.625 1.625-1.625h15.146c1.032 0 2.016 0.389 2.768 1.096l4.73 4.441c0.096 0.090 0.222 0.14 0.354 0.14h0.893c1.081 0 2.071 0.392 2.84 1.038-0.27 0.017-0.485 0.236-0.485 0.51 0 0.285 0.231 0.516 0.516 0.516h0.862c0.432 0.683 0.687 1.489 0.687 2.355 0 0.509-0.3 0.947-0.744 1.144z"></path>
<path fill="#ff540e" style="fill: var(--color3, #ff540e)" d="M22.193 19.109h-11.871c-0.285 0-0.516 0.231-0.516 0.516s0.231 0.516 0.516 0.516h11.871c0.285 0 0.516-0.231 0.516-0.516s-0.231-0.516-0.516-0.516z"></path>
<path d="M14.452 17.044v-4.635c0-0.285-0.231-0.516-0.516-0.516h-11.355c-0.285 0-0.516 0.231-0.516 0.516v4.635c0 0.285 0.231 0.516 0.516 0.516h11.355c0.285 0 0.516-0.231 0.516-0.516zM13.42 16.528h-10.322v-3.602h10.322v3.602z"></path>
<path d="M20.001 12.883c-0.68-0.638-1.569-0.989-2.502-0.989h-1.499c-0.285 0-0.516 0.231-0.516 0.516v4.635c0 0.285 0.231 0.516 0.516 0.516h7.691c0.212 0 0.402-0.13 0.48-0.327s0.027-0.421-0.127-0.566l-4.043-3.785zM16.516 16.528v-3.602h0.983c0.67 0 1.308 0.252 1.797 0.71l3.089 2.893h-5.869z"></path>
<path fill="#ff540e" style="fill: var(--color3, #ff540e)" d="M6.21 21.117c-0.972 0-1.763 0.791-1.763 1.763s0.791 1.763 1.763 1.763 1.763-0.791 1.763-1.763c0-0.972-0.791-1.763-1.763-1.763zM6.21 23.61c-0.403 0-0.731-0.328-0.731-0.731s0.328-0.731 0.731-0.731c0.403 0 0.731 0.328 0.731 0.731s-0.328 0.731-0.731 0.731z"></path>
<path fill="#ff540e" style="fill: var(--color3, #ff540e)" d="M26.782 21.117c-0.972 0-1.763 0.791-1.763 1.763s0.791 1.763 1.763 1.763 1.763-0.791 1.763-1.763c0-0.972-0.791-1.763-1.763-1.763zM26.782 23.61c-0.403 0-0.731-0.328-0.731-0.731s0.328-0.731 0.731-0.731c0.403 0 0.731 0.328 0.731 0.731s-0.328 0.731-0.731 0.731z"></path>
<path fill="#ff540e" style="fill: var(--color3, #ff540e)" d="M9.806 6.722h4.645c0.285 0 0.516-0.231 0.516-0.516s-0.231-0.516-0.516-0.516h-4.645c-0.285 0-0.516 0.231-0.516 0.516s0.231 0.516 0.516 0.516z"></path>
<path fill="#ff540e" style="fill: var(--color3, #ff540e)" d="M5.677 8.27h7.226c0.285 0 0.516-0.231 0.516-0.516s-0.231-0.516-0.516-0.516h-7.226c-0.285 0-0.516 0.231-0.516 0.516s0.231 0.516 0.516 0.516z"></path>
</symbol>
<symbol id="icon-paste" viewBox="0 0 32 32">
<path d="M22 4h-4v-2c0-1.1-0.9-2-2-2h-4c-1.1 0-2 0.9-2 2v2h-4v4h16v-4zM16 4h-4v-1.996c0.001-0.001 0.002-0.002 0.004-0.004h3.993c0.001 0.001 0.003 0.002 0.004 0.004v1.996zM26 10v-5c0-0.55-0.45-1-1-1h-2v2h1v4h-6l-6 6v8h-8v-18h1v-2h-2c-0.55 0-1 0.45-1 1v20c0 0.55 0.45 1 1 1h9v6h20v-22h-6zM18 12.828v3.172h-3.172l3.172-3.172zM30 30h-16v-12h6v-6h10v18z"></path>
</symbol>
<symbol id="icon-clock" viewBox="0 0 32 32">
<path d="M20.586 23.414l-6.586-6.586v-8.828h4v7.172l5.414 5.414zM16 0c-8.837 0-16 7.163-16 16s7.163 16 16 16 16-7.163 16-16-7.163-16-16-16zM16 28c-6.627 0-12-5.373-12-12s5.373-12 12-12c6.627 0 12 5.373 12 12s-5.373 12-12 12z"></path>
</symbol>
<symbol id="icon-indent-decrease" viewBox="0 0 32 32">
<path d="M0 2h32v4h-32zM12 8h20v4h-20zM12 14h20v4h-20zM12 20h20v4h-20zM0 26h32v4h-32zM8 10v12l-8-6z"></path>
</symbol>
</defs>
<symbol id="icon-security" viewBox="0 0 24 24">
<path fill="#ff540e" d="M12 0.984l9 4.031v6q0 4.172-2.578 7.617t-6.422 4.383q-3.844-0.938-6.422-4.383t-2.578-7.617v-6zM12 12v8.953q2.766-0.891 4.688-3.352t2.297-5.602h-6.984zM12 12v-8.813l-6.984 3.094v5.719h6.984z"></path>
</symbol>
<symbol id="icon-user-check" viewBox="0 0 32 32">
<path fill="#ff540e" d="M30 19l-9 9-3-3-2 2 5 5 11-11z"></path>
<path  d="M14 24h10v-3.598c-2.101-1.225-4.885-2.066-8-2.321v-1.649c2.203-1.242 4-4.337 4-7.432 0-4.971 0-9-6-9s-6 4.029-6 9c0 3.096 1.797 6.191 4 7.432v1.649c-6.784 0.555-12 3.888-12 7.918h14v-2z"></path>
</symbol>
<symbol id="icon-box" viewBox="0 0 32 32">
<path fill="#ff540e" d="M1.735 17.832l12.054 6.081 2.152-6.081-12.053-5.758-2.153 5.758zM16.211 17.832l2.045 6.027 12.484-6.081-2.422-5.704-12.107 5.758zM-0.247 7.212l4.144 4.843 12.053-6.134-3.928-5.005-12.269 6.296zM32.247 7.319l-12.001-6.403-4.090 5.005 12.162 6.134 3.929-4.736zM3.175 19.353l-0.041 5.839 12.713 5.893v-10.98l-1.816 4.736-10.856-5.488zM16.291 20.105v10.979l12.674-5.893v-5.799l-10.99 5.46-1.684-4.747z"></path>
</symbol>
</svg>
